<svg width="29" height="24" viewBox="0 0 29 24" fill="none" xmlns="http://www.w3.org/2000/svg">
<path fill-rule="evenodd" clip-rule="evenodd" d="M4.44406 4.09202C4.22607 4.51984 4.22607 5.0799 4.22607 6.2V6.81385L22.2155 5.17845C22.1972 4.68953 22.1467 4.36404 22.0081 4.09202C21.8163 3.71569 21.5104 3.40973 21.1341 3.21799C20.7062 3 20.1462 3 19.0261 3H7.42607C6.30597 3 5.74592 3 5.31809 3.21799C4.94177 3.40973 4.63581 3.71569 4.44406 4.09202ZM22.2261 7.18574L17.3612 7.62799L19.8675 20.9947C20.459 20.9818 20.8299 20.937 21.1341 20.782C21.5104 20.5903 21.8163 20.2843 22.0081 19.908C22.2261 19.4802 22.2261 18.9201 22.2261 17.8V7.18574ZM17.8336 21L15.3605 7.80988L4.22607 8.8221V17.8C4.22607 18.9201 4.22607 19.4802 4.44406 19.908C4.63581 20.2843 4.94177 20.5903 5.31809 20.782C5.74592 21 6.30597 21 7.42607 21H17.8336ZM16.0969 15.0294C16.0969 17.2744 13.3755 18.8247 12.3591 19.3254C12.1205 19.443 11.844 19.443 11.6054 19.3254C10.589 18.8247 7.86758 17.2744 7.86758 15.0294C7.86758 12.9118 9.86128 11.5 11.9822 11.5C14.1767 11.5 16.0969 12.9118 16.0969 15.0294Z" fill="#6320EE"/>
<ellipse cx="11.9823" cy="15" rx="1.17562" ry="1" fill="#6320EE"/>
</svg>
